<mxfile host="app.diagrams.net" modified="2024-06-08T19:09:38.426Z" agent="Mozilla/5.0 (Windows NT 10.0; Win64; x64) AppleWebKit/537.36 (KHTML, like Gecko) Chrome/125.0.0.0 Safari/537.36" etag="qrExOgqJeNCUKZ5hqrCX" version="24.4.9" type="device">
  <diagram id="C5RBs43oDa-KdzZeNtuy" name="Page-1">
    <mxGraphModel dx="1004" dy="673" grid="1" gridSize="10" guides="1" tooltips="1" connect="1" arrows="1" fold="1" page="1" pageScale="1" pageWidth="827" pageHeight="1169" math="0" shadow="0">
      <root>
        <mxCell id="WIyWlLk6GJQsqaUBKTNV-0" />
        <mxCell id="WIyWlLk6GJQsqaUBKTNV-1" parent="WIyWlLk6GJQsqaUBKTNV-0" />
        <mxCell id="1qlJ9vHYkHGmsLAf48gB-2" style="edgeStyle=orthogonalEdgeStyle;rounded=0;orthogonalLoop=1;jettySize=auto;html=1;" parent="WIyWlLk6GJQsqaUBKTNV-1" source="1qlJ9vHYkHGmsLAf48gB-0" target="1qlJ9vHYkHGmsLAf48gB-1" edge="1">
          <mxGeometry relative="1" as="geometry" />
        </mxCell>
        <mxCell id="1qlJ9vHYkHGmsLAf48gB-0" value="Labeled CXR Dataset" style="shape=cylinder3;whiteSpace=wrap;html=1;boundedLbl=1;backgroundOutline=1;size=15;" parent="WIyWlLk6GJQsqaUBKTNV-1" vertex="1">
          <mxGeometry x="30" y="320" width="60" height="80" as="geometry" />
        </mxCell>
        <mxCell id="1qlJ9vHYkHGmsLAf48gB-13" style="edgeStyle=orthogonalEdgeStyle;rounded=0;orthogonalLoop=1;jettySize=auto;html=1;" parent="WIyWlLk6GJQsqaUBKTNV-1" source="1qlJ9vHYkHGmsLAf48gB-1" target="1qlJ9vHYkHGmsLAf48gB-11" edge="1">
          <mxGeometry relative="1" as="geometry" />
        </mxCell>
        <mxCell id="1qlJ9vHYkHGmsLAf48gB-1" value="Lung Segmentation Training" style="rounded=0;whiteSpace=wrap;html=1;" parent="WIyWlLk6GJQsqaUBKTNV-1" vertex="1">
          <mxGeometry x="140" y="330" width="120" height="60" as="geometry" />
        </mxCell>
        <mxCell id="1qlJ9vHYkHGmsLAf48gB-17" value="" style="edgeStyle=orthogonalEdgeStyle;rounded=0;orthogonalLoop=1;jettySize=auto;html=1;" parent="WIyWlLk6GJQsqaUBKTNV-1" source="1qlJ9vHYkHGmsLAf48gB-11" target="1qlJ9vHYkHGmsLAf48gB-16" edge="1">
          <mxGeometry relative="1" as="geometry">
            <Array as="points">
              <mxPoint x="370" y="450" />
            </Array>
          </mxGeometry>
        </mxCell>
        <mxCell id="1qlJ9vHYkHGmsLAf48gB-11" value="Result Cleaning" style="rounded=1;whiteSpace=wrap;html=1;" parent="WIyWlLk6GJQsqaUBKTNV-1" vertex="1">
          <mxGeometry x="310" y="330" width="120" height="60" as="geometry" />
        </mxCell>
        <mxCell id="I4Sx5yzCMb0QLdIqf48F-7" style="edgeStyle=orthogonalEdgeStyle;rounded=0;orthogonalLoop=1;jettySize=auto;html=1;entryX=0;entryY=0.5;entryDx=0;entryDy=0;" edge="1" parent="WIyWlLk6GJQsqaUBKTNV-1" source="1qlJ9vHYkHGmsLAf48gB-14" target="I4Sx5yzCMb0QLdIqf48F-5">
          <mxGeometry relative="1" as="geometry" />
        </mxCell>
        <mxCell id="1qlJ9vHYkHGmsLAf48gB-14" value="CXR Lung Only Dataset" style="shape=cylinder3;whiteSpace=wrap;html=1;boundedLbl=1;backgroundOutline=1;size=15;" parent="WIyWlLk6GJQsqaUBKTNV-1" vertex="1">
          <mxGeometry x="340" y="220" width="60" height="80" as="geometry" />
        </mxCell>
        <mxCell id="1qlJ9vHYkHGmsLAf48gB-15" style="edgeStyle=orthogonalEdgeStyle;rounded=0;orthogonalLoop=1;jettySize=auto;html=1;entryX=0.5;entryY=1;entryDx=0;entryDy=0;entryPerimeter=0;" parent="WIyWlLk6GJQsqaUBKTNV-1" source="1qlJ9vHYkHGmsLAf48gB-11" target="1qlJ9vHYkHGmsLAf48gB-14" edge="1">
          <mxGeometry relative="1" as="geometry" />
        </mxCell>
        <mxCell id="1qlJ9vHYkHGmsLAf48gB-28" style="edgeStyle=orthogonalEdgeStyle;rounded=0;orthogonalLoop=1;jettySize=auto;html=1;entryX=0;entryY=0.5;entryDx=0;entryDy=0;" parent="WIyWlLk6GJQsqaUBKTNV-1" source="1qlJ9vHYkHGmsLAf48gB-16" target="1qlJ9vHYkHGmsLAf48gB-27" edge="1">
          <mxGeometry relative="1" as="geometry" />
        </mxCell>
        <mxCell id="1qlJ9vHYkHGmsLAf48gB-16" value="Cardiomegaly Calculation" style="rounded=1;whiteSpace=wrap;html=1;" parent="WIyWlLk6GJQsqaUBKTNV-1" vertex="1">
          <mxGeometry x="480" y="420" width="120" height="60" as="geometry" />
        </mxCell>
        <mxCell id="1qlJ9vHYkHGmsLAf48gB-29" style="edgeStyle=orthogonalEdgeStyle;rounded=0;orthogonalLoop=1;jettySize=auto;html=1;entryX=0;entryY=0.5;entryDx=0;entryDy=0;" parent="WIyWlLk6GJQsqaUBKTNV-1" source="1qlJ9vHYkHGmsLAf48gB-18" target="1qlJ9vHYkHGmsLAf48gB-27" edge="1">
          <mxGeometry relative="1" as="geometry" />
        </mxCell>
        <mxCell id="1qlJ9vHYkHGmsLAf48gB-18" value="Lung Color Feature Extraction for Pleural Effusion Detection" style="whiteSpace=wrap;html=1;rounded=1;" parent="WIyWlLk6GJQsqaUBKTNV-1" vertex="1">
          <mxGeometry x="480" y="330" width="120" height="60" as="geometry" />
        </mxCell>
        <mxCell id="I4Sx5yzCMb0QLdIqf48F-1" style="edgeStyle=orthogonalEdgeStyle;rounded=0;orthogonalLoop=1;jettySize=auto;html=1;" edge="1" parent="WIyWlLk6GJQsqaUBKTNV-1" source="1qlJ9vHYkHGmsLAf48gB-20" target="1qlJ9vHYkHGmsLAf48gB-32">
          <mxGeometry relative="1" as="geometry" />
        </mxCell>
        <mxCell id="1qlJ9vHYkHGmsLAf48gB-20" value="Cavitation and Nodule Object Detection Training" style="rounded=0;whiteSpace=wrap;html=1;" parent="WIyWlLk6GJQsqaUBKTNV-1" vertex="1">
          <mxGeometry x="310" y="120" width="120" height="60" as="geometry" />
        </mxCell>
        <mxCell id="1qlJ9vHYkHGmsLAf48gB-27" value="Output" style="ellipse;whiteSpace=wrap;html=1;" parent="WIyWlLk6GJQsqaUBKTNV-1" vertex="1">
          <mxGeometry x="690" y="320" width="120" height="80" as="geometry" />
        </mxCell>
        <mxCell id="1qlJ9vHYkHGmsLAf48gB-34" style="edgeStyle=orthogonalEdgeStyle;rounded=0;orthogonalLoop=1;jettySize=auto;html=1;entryX=0;entryY=0.5;entryDx=0;entryDy=0;" parent="WIyWlLk6GJQsqaUBKTNV-1" source="1qlJ9vHYkHGmsLAf48gB-32" target="1qlJ9vHYkHGmsLAf48gB-27" edge="1">
          <mxGeometry relative="1" as="geometry" />
        </mxCell>
        <mxCell id="1qlJ9vHYkHGmsLAf48gB-32" value="Cavitation and Nodule Impact Determination" style="whiteSpace=wrap;html=1;rounded=1;" parent="WIyWlLk6GJQsqaUBKTNV-1" vertex="1">
          <mxGeometry x="480" y="120" width="120" height="60" as="geometry" />
        </mxCell>
        <mxCell id="I4Sx5yzCMb0QLdIqf48F-4" style="edgeStyle=orthogonalEdgeStyle;rounded=0;orthogonalLoop=1;jettySize=auto;html=1;entryX=0;entryY=0.5;entryDx=0;entryDy=0;" edge="1" parent="WIyWlLk6GJQsqaUBKTNV-1" source="I4Sx5yzCMb0QLdIqf48F-3" target="1qlJ9vHYkHGmsLAf48gB-20">
          <mxGeometry relative="1" as="geometry">
            <Array as="points">
              <mxPoint x="60" y="150" />
            </Array>
          </mxGeometry>
        </mxCell>
        <mxCell id="I4Sx5yzCMb0QLdIqf48F-3" value="Nodule CXR Dataset" style="shape=cylinder3;whiteSpace=wrap;html=1;boundedLbl=1;backgroundOutline=1;size=15;" vertex="1" parent="WIyWlLk6GJQsqaUBKTNV-1">
          <mxGeometry x="30" y="220" width="60" height="80" as="geometry" />
        </mxCell>
        <mxCell id="I4Sx5yzCMb0QLdIqf48F-8" style="edgeStyle=orthogonalEdgeStyle;rounded=0;orthogonalLoop=1;jettySize=auto;html=1;" edge="1" parent="WIyWlLk6GJQsqaUBKTNV-1" source="I4Sx5yzCMb0QLdIqf48F-5" target="1qlJ9vHYkHGmsLAf48gB-18">
          <mxGeometry relative="1" as="geometry" />
        </mxCell>
        <mxCell id="I4Sx5yzCMb0QLdIqf48F-5" value="MLP Neural Network Classification&amp;nbsp;" style="rounded=0;whiteSpace=wrap;html=1;" vertex="1" parent="WIyWlLk6GJQsqaUBKTNV-1">
          <mxGeometry x="480" y="230" width="120" height="60" as="geometry" />
        </mxCell>
      </root>
    </mxGraphModel>
  </diagram>
</mxfile>
